<svg width="24" height="25" viewBox="0 0 24 25" fill="none" xmlns="http://www.w3.org/2000/svg">
<g clip-path="url(#clip0_34_33)">
<path d="M12 0.763428C8.73997 0.763428 8.33302 0.778451 7.053 0.835538C5.775 0.895631 4.905 1.09694 4.14 1.3944C3.351 1.70087 2.681 2.1125 2.014 2.78052C1.347 3.44855 0.935003 4.11858 0.63 4.90979C0.333 5.67596 0.131 6.5473 0.072 7.82726C0.012 9.10925 0 9.51683 0 12.7819C0 16.0469 0.015 16.4545 0.072 17.7365C0.132 19.0154 0.333 19.8878 0.63 20.6539C0.936 21.4432 1.347 22.1152 2.014 22.7832C2.681 23.4502 3.35 23.8638 4.14 24.1693C4.906 24.4658 5.776 24.6691 7.053 24.7282C8.33302 24.7883 8.73997 24.8003 12 24.8003C15.26 24.8003 15.667 24.7853 16.947 24.7282C18.224 24.6681 19.095 24.4658 19.86 24.1693C20.648 23.8629 21.319 23.4502 21.986 22.7832C22.652 22.1152 23.065 21.4462 23.37 20.6539C23.666 19.8878 23.869 19.0154 23.928 17.7365C23.988 16.4545 24 16.0469 24 12.7819C24 9.51683 23.985 9.10925 23.928 7.82726C23.868 6.5483 23.666 5.67496 23.37 4.90979C23.064 4.11958 22.652 3.44855 21.986 2.78052C21.319 2.1125 20.651 1.69987 19.86 1.3944C19.095 1.09694 18.224 0.894629 16.947 0.835538C15.667 0.775446 15.26 0.763428 12 0.763428ZM12 2.92675C15.203 2.92675 15.585 2.94277 16.85 2.99786C18.02 3.05294 18.655 3.24724 19.077 3.41349C19.639 3.63082 20.037 3.89123 20.459 4.31087C20.878 4.73152 21.138 5.13113 21.355 5.69399C21.519 6.11664 21.715 6.75261 21.768 7.92441C21.825 9.19233 21.838 9.57294 21.838 12.7819C21.838 15.9908 21.823 16.3724 21.764 17.6393C21.703 18.8111 21.508 19.4471 21.343 19.8697C21.119 20.4326 20.864 20.8312 20.444 21.2539C20.025 21.6735 19.62 21.9339 19.064 22.1512C18.644 22.3155 17.999 22.5118 16.829 22.5649C15.555 22.622 15.18 22.6349 11.97 22.6349C8.75902 22.6349 8.38402 22.6199 7.111 22.5609C5.94 22.4997 5.295 22.3044 4.875 22.1392C4.306 21.9149 3.915 21.6595 3.496 21.2389C3.075 20.8192 2.806 20.4136 2.596 19.8567C2.431 19.4361 2.237 18.7901 2.176 17.6183C2.131 16.3564 2.115 15.9667 2.115 12.7668C2.115 9.56595 2.131 9.17535 2.176 7.89837C2.237 6.72658 2.431 6.08158 2.596 5.66094C2.806 5.09006 3.075 4.69946 3.496 4.27782C3.915 3.85817 4.306 3.58776 4.875 3.37844C5.295 3.21218 5.926 3.01688 7.096 2.95679C8.37098 2.91172 8.74597 2.8967 11.955 2.8967L12 2.92675ZM12 6.6104C8.595 6.6104 5.838 9.37464 5.838 12.7819C5.838 16.1921 8.598 18.9533 12 18.9533C15.405 18.9533 18.162 16.1891 18.162 12.7819C18.162 9.37163 15.402 6.6104 12 6.6104ZM12 16.788C9.78998 16.788 8.00002 14.9953 8.00002 12.7819C8.00002 10.5684 9.78998 8.77574 12 8.77574C14.21 8.77574 16 10.5684 16 12.7819C16 14.9953 14.21 16.788 12 16.788ZM19.846 6.36702C19.846 7.16324 19.2 7.80923 18.406 7.80923C17.611 7.80923 16.966 7.16224 16.966 6.36702C16.966 5.5718 17.612 4.92581 18.406 4.92581C19.199 4.92481 19.846 5.5718 19.846 6.36702Z" fill="url(#paint0_linear_34_33)"/>
</g>
<defs>
<linearGradient id="paint0_linear_34_33" x1="12" y1="0.763428" x2="12" y2="24.8003" gradientUnits="userSpaceOnUse">
<stop stop-color="#23BDFF"/>
<stop offset="1" stop-color="#2487FB"/>
</linearGradient>
<clipPath id="clip0_34_33">
<rect width="24" height="24.0369" fill="white" transform="translate(0 0.763428)"/>
</clipPath>
</defs>
</svg>
