<svg width="32" height="24" viewBox="0 0 32 24" fill="none" xmlns="http://www.w3.org/2000/svg">
<g clip-path="url(#clip0_34_41)">
<path d="M31.3307 4.29189C31.1499 3.60987 30.7934 2.9874 30.2968 2.4868C29.8003 1.9862 29.1811 1.62505 28.5013 1.43951C26.0067 0.765137 16 0.765137 16 0.765137C16 0.765137 5.99333 0.765137 3.49733 1.43951C2.81788 1.62538 2.19906 1.98666 1.70277 2.48722C1.20648 2.98779 0.850122 3.61009 0.669333 4.29189C0 6.80774 0 12.0558 0 12.0558C0 12.0558 0 17.3038 0.669333 19.8197C0.850115 20.5017 1.20663 21.1242 1.70319 21.6247C2.19974 22.1253 2.8189 22.4865 3.49867 22.672C5.99333 23.3464 16 23.3464 16 23.3464C16 23.3464 26.0067 23.3464 28.5027 22.672C29.1825 22.4867 29.8017 22.1255 30.2983 21.6249C30.7949 21.1243 31.1513 20.5017 31.332 19.8197C32 17.3038 32 12.0558 32 12.0558C32 12.0558 32 6.80774 31.3307 4.29189ZM12.7267 16.8204V7.29119L21.0907 12.0558L12.7267 16.8204Z" fill="url(#paint0_linear_34_41)"/>
</g>
<defs>
<linearGradient id="paint0_linear_34_41" x1="16" y1="0.765137" x2="16" y2="23.3464" gradientUnits="userSpaceOnUse">
<stop stop-color="#23BDFF"/>
<stop offset="1" stop-color="#2487FB"/>
</linearGradient>
<clipPath id="clip0_34_41">
<rect width="32" height="23.0353" fill="white" transform="translate(0 0.765137)"/>
</clipPath>
</defs>
</svg>
