<svg width="320" height="799" viewBox="0 0 320 799" fill="none" xmlns="http://www.w3.org/2000/svg">
<g clip-path="url(#clip0_61_68)">
<path d="M192 0L165.3 10.2649C139 20.4744 85 41.0597 58.7 61.5896C32 81.953 32 102.649 37.3 123.179C43 143.432 53 163.684 64 184.214C75 204.855 85 225.274 112 245.803C139 266.333 181 286.863 186.7 307.393C192 327.812 160 348.453 165.3 368.983C171 389.235 213 409.488 213.3 430.017C213 450.714 171 471.077 138.7 491.607C107 512.192 85 532.667 85.3 553.197C85 573.615 107 594.256 122.7 614.786C139 635.094 149 655.846 154.7 675.821C160 696.573 160 716.881 186.7 737.41C213 758.051 267 778.47 293.3 789.013L320 799H0V788.735C0 778.526 0 757.94 0 737.41C0 717.047 0 696.351 0 675.821C0 655.568 0 635.316 0 614.786C0 594.145 0 573.726 0 553.197C0 532.667 0 512.137 0 491.607C0 471.188 0 450.547 0 430.017C0 409.765 0 389.513 0 368.983C0 348.286 0 327.923 0 307.393C0 286.808 0 266.333 0 245.803C0 225.385 0 204.744 0 184.214C0 163.906 0 143.154 0 123.179C0 102.427 0 82.1194 0 61.5896C0 40.9488 0 20.5299 0 9.9875V0L192 0Z" fill="white"/>
</g>
<defs>
<clipPath id="clip0_61_68">
<rect width="799" height="320" fill="white" transform="translate(320) rotate(90)"/>
</clipPath>
</defs>
</svg>
