<svg width="190" height="40" viewBox="0 0 190 40" fill="none" xmlns="http://www.w3.org/2000/svg">
<path d="M0 31.056V1.86348H10.6004C13.9406 1.86348 16.7564 2.44319 19.0476 3.6026C21.3664 4.73442 23.1194 6.39073 24.3064 8.57154C25.4934 10.7247 26.0869 13.3472 26.0869 16.439C26.0869 19.5032 25.4934 22.1257 24.3064 24.3065C23.1194 26.4873 21.3664 28.1574 19.0476 29.3169C16.7564 30.4763 13.9406 31.056 10.6004 31.056H0ZM5.34161 26.6253H10.2691C13.8026 26.6253 16.4251 25.7834 18.1366 24.0995C19.8481 22.4156 20.7039 19.8621 20.7039 16.439C20.7039 12.9884 19.8481 10.4349 18.1366 8.77858C16.4251 7.09466 13.8026 6.2527 10.2691 6.2527H5.34161V26.6253Z" fill="#F7F7F7"/>
<path d="M31.0856 31.056V15.4866C31.0856 14.6033 31.058 13.7061 31.0028 12.7951C30.9752 11.8842 30.9062 11.0008 30.7958 10.145H35.8061L36.3858 15.8593H35.5577C35.8337 14.4791 36.2892 13.3334 36.9241 12.4225C37.5866 11.5115 38.3872 10.8352 39.3258 10.3935C40.2643 9.9518 41.2857 9.73096 42.3899 9.73096C42.8868 9.73096 43.2871 9.75857 43.5908 9.81378C43.8944 9.84138 44.1981 9.91039 44.5017 10.0208L44.4603 14.5757C43.9358 14.3548 43.4803 14.2168 43.0939 14.1616C42.735 14.1064 42.2795 14.0788 41.7274 14.0788C40.5404 14.0788 39.5328 14.3272 38.7046 14.8241C37.9041 15.321 37.2968 16.0111 36.8827 16.8945C36.4962 17.7779 36.303 18.7855 36.303 19.9173V31.056H31.0856Z" fill="#F7F7F7"/>
<path d="M47.3828 31.056V10.145H52.5588V31.056H47.3828Z" fill="#F7F7F7"/>
<path d="M58.1796 40.0001V15.3624C58.1796 14.5067 58.152 13.6371 58.0968 12.7537C58.0416 11.8704 57.9587 11.0008 57.8483 10.145H62.8587L63.3141 14.5343H62.8587C63.2727 13.0712 64.1423 11.9118 65.4673 11.056C66.82 10.1726 68.3797 9.73096 70.1464 9.73096C71.996 9.73096 73.6109 10.1726 74.9911 11.056C76.3714 11.9118 77.448 13.154 78.221 14.7827C78.9939 16.3838 79.3804 18.3162 79.3804 20.5798C79.3804 22.8434 78.9939 24.7896 78.221 26.4183C77.448 28.047 76.3714 29.3031 74.9911 30.1864C73.6109 31.0422 71.996 31.4701 70.1464 31.4701C68.4073 31.4701 66.8752 31.0422 65.5502 30.1864C64.2251 29.3307 63.3417 28.185 62.9001 26.7496H63.3555V40.0001H58.1796ZM68.6972 27.4949C70.3535 27.4949 71.6785 26.929 72.6723 25.7972C73.6661 24.6378 74.163 22.8986 74.163 20.5798C74.163 18.261 73.6661 16.5356 72.6723 15.4038C71.6785 14.272 70.3535 13.7061 68.6972 13.7061C67.0685 13.7061 65.7572 14.272 64.7634 15.4038C63.7696 16.5356 63.2727 18.261 63.2727 20.5798C63.2727 22.8986 63.7696 24.6378 64.7634 25.7972C65.7572 26.929 67.0685 27.4949 68.6972 27.4949Z" fill="#F7F7F7"/>
<path d="M97.8531 31.4701C94.8165 31.4701 92.2078 30.8627 90.027 29.6481C87.8738 28.4059 86.2175 26.6668 85.0581 24.4307C83.8987 22.1671 83.319 19.5032 83.319 16.439C83.319 13.3748 83.8987 10.7247 85.0581 8.48873C86.2175 6.2527 87.8738 4.52738 90.027 3.31275C92.2078 2.07052 94.8165 1.4494 97.8531 1.4494C99.8959 1.4494 101.732 1.73925 103.36 2.31896C105.017 2.89867 106.438 3.75443 107.625 4.88625L105.886 9.10984C104.589 8.06085 103.333 7.3155 102.118 6.87382C100.931 6.40453 99.5646 6.16989 98.0187 6.16989C95.065 6.16989 92.8014 7.06706 91.2279 8.8614C89.682 10.6281 88.909 13.154 88.909 16.439C88.909 19.724 89.682 22.2637 91.2279 24.0581C92.8014 25.8524 95.065 26.7496 98.0187 26.7496C99.5646 26.7496 100.931 26.5287 102.118 26.087C103.333 25.6178 104.589 24.8448 105.886 23.7682L107.625 27.9918C106.438 29.096 105.017 29.9518 103.36 30.5591C101.732 31.1664 99.8959 31.4701 97.8531 31.4701Z" fill="#F7F7F7"/>
<path d="M112.204 31.056V0.579834H117.38V31.056H112.204Z" fill="#F7F7F7"/>
<path d="M132.442 31.4701C130.288 31.4701 128.425 31.0284 126.852 30.145C125.278 29.2616 124.05 28.0056 123.166 26.3769C122.31 24.7482 121.883 22.8158 121.883 20.5798C121.883 18.3438 122.31 16.4252 123.166 14.8241C124.05 13.1954 125.278 11.9394 126.852 11.056C128.425 10.1726 130.288 9.73096 132.442 9.73096C134.595 9.73096 136.458 10.1726 138.032 11.056C139.633 11.9394 140.861 13.1954 141.717 14.8241C142.6 16.4252 143.042 18.3438 143.042 20.5798C143.042 22.8158 142.6 24.7482 141.717 26.3769C140.861 28.0056 139.633 29.2616 138.032 30.145C136.458 31.0284 134.595 31.4701 132.442 31.4701ZM132.442 27.4949C134.07 27.4949 135.368 26.929 136.334 25.7972C137.3 24.6378 137.783 22.8986 137.783 20.5798C137.783 18.261 137.3 16.5356 136.334 15.4038C135.368 14.272 134.07 13.7061 132.442 13.7061C130.813 13.7061 129.515 14.272 128.549 15.4038C127.583 16.5356 127.1 18.261 127.1 20.5798C127.1 22.8986 127.583 24.6378 128.549 25.7972C129.515 26.929 130.813 27.4949 132.442 27.4949Z" fill="#F7F7F7"/>
<path d="M157.112 31.4701C154.959 31.4701 153.068 31.0284 151.439 30.145C149.838 29.2616 148.596 28.0056 147.713 26.3769C146.829 24.7206 146.388 22.7606 146.388 20.497C146.388 18.2334 146.829 16.301 147.713 14.6999C148.624 13.0988 149.88 11.8704 151.481 11.0146C153.082 10.1588 154.959 9.73096 157.112 9.73096C158.492 9.73096 159.831 9.9518 161.129 10.3935C162.454 10.8076 163.53 11.4149 164.359 12.2154L162.785 15.8179C162.04 15.1278 161.198 14.6171 160.259 14.2858C159.348 13.927 158.451 13.7475 157.568 13.7475C155.718 13.7475 154.269 14.3272 153.22 15.4866C152.198 16.6461 151.688 18.33 151.688 20.5384C151.688 22.7468 152.198 24.4445 153.22 25.6316C154.269 26.8186 155.718 27.4121 157.568 27.4121C158.423 27.4121 159.307 27.2465 160.218 26.9152C161.156 26.5839 162.012 26.0732 162.785 25.3831L164.359 28.9442C163.503 29.7447 162.412 30.3659 161.087 30.8075C159.79 31.2492 158.465 31.4701 157.112 31.4701Z" fill="#F7F7F7"/>
<path d="M168.371 31.056V0.579834H173.547V19.0477H173.63L182.119 10.145H188.371L177.812 21.2009L177.854 19.1305L189.117 31.056H182.698L173.63 21.6978H173.547V31.056H168.371Z" fill="#F7F7F7"/>
<path d="M52.4553 5.69357C52.4553 7.12288 51.2966 8.28156 49.8673 8.28156C48.438 8.28156 47.2793 7.12288 47.2793 5.69357C47.2793 4.26427 49.8673 1.0352 49.8673 0C49.8673 1.0352 52.4553 4.26427 52.4553 5.69357Z" fill="#089FF4"/>
</svg>
