<svg width="190" height="40" viewBox="0 0 190 40" fill="none" xmlns="http://www.w3.org/2000/svg">
<path d="M0 31.0559V1.86342H10.6004C13.9406 1.86342 16.7564 2.44312 19.0476 3.60254C21.3664 4.73436 23.1194 6.39067 24.3064 8.57148C25.4934 10.7247 26.0869 13.3472 26.0869 16.439C26.0869 19.5031 25.4934 22.1256 24.3064 24.3064C23.1194 26.4873 21.3664 28.1574 19.0476 29.3168C16.7564 30.4762 13.9406 31.0559 10.6004 31.0559H0ZM5.34161 26.6253H10.2691C13.8026 26.6253 16.4251 25.7833 18.1366 24.0994C19.8481 22.4155 20.7039 19.862 20.7039 16.439C20.7039 12.9883 19.8481 10.4348 18.1366 8.77852C16.4251 7.0946 13.8026 6.25264 10.2691 6.25264H5.34161V26.6253Z" fill="black"/>
<path d="M31.0856 31.0559V15.4866C31.0856 14.6032 31.058 13.706 31.0028 12.7951C30.9752 11.8841 30.9062 11.0007 30.7958 10.145H35.8061L36.3858 15.8593H35.5577C35.8337 14.479 36.2892 13.3334 36.9241 12.4224C37.5866 11.5114 38.3872 10.8351 39.3258 10.3934C40.2643 9.95174 41.2857 9.7309 42.3899 9.7309C42.8868 9.7309 43.2871 9.7585 43.5908 9.81371C43.8944 9.84132 44.1981 9.91033 44.5017 10.0208L44.4603 14.5756C43.9358 14.3548 43.4803 14.2167 43.0939 14.1615C42.735 14.1063 42.2795 14.0787 41.7274 14.0787C40.5404 14.0787 39.5328 14.3272 38.7046 14.8241C37.9041 15.321 37.2968 16.0111 36.8827 16.8944C36.4962 17.7778 36.303 18.7854 36.303 19.9172V31.0559H31.0856Z" fill="black"/>
<path d="M47.3828 31.0559V10.145H52.5588V31.0559H47.3828Z" fill="black"/>
<path d="M58.1796 40V15.3624C58.1796 14.5066 58.152 13.637 58.0968 12.7537C58.0415 11.8703 57.9587 11.0007 57.8483 10.145H62.8587L63.3141 14.5342H62.8587C63.2727 13.0711 64.1423 11.9117 65.4673 11.0559C66.82 10.1726 68.3797 9.7309 70.1464 9.7309C71.996 9.7309 73.6109 10.1726 74.9911 11.0559C76.3714 11.9117 77.448 13.1539 78.2209 14.7827C78.9939 16.3838 79.3804 18.3161 79.3804 20.5797C79.3804 22.8434 78.9939 24.7895 78.2209 26.4182C77.448 28.047 76.3714 29.303 74.9911 30.1864C73.6109 31.0421 71.996 31.47 70.1464 31.47C68.4073 31.47 66.8752 31.0421 65.5502 30.1864C64.2251 29.3306 63.3417 28.185 62.9001 26.7495H63.3555V40H58.1796ZM68.6972 27.4948C70.3535 27.4948 71.6785 26.9289 72.6723 25.7971C73.6661 24.6377 74.163 22.8986 74.163 20.5797C74.163 18.2609 73.6661 16.5356 72.6723 15.4038C71.6785 14.272 70.3535 13.706 68.6972 13.706C67.0685 13.706 65.7572 14.272 64.7634 15.4038C63.7696 16.5356 63.2727 18.2609 63.2727 20.5797C63.2727 22.8986 63.7696 24.6377 64.7634 25.7971C65.7572 26.9289 67.0685 27.4948 68.6972 27.4948Z" fill="black"/>
<path d="M97.8531 31.47C94.8165 31.47 92.2078 30.8627 90.027 29.6481C87.8738 28.4058 86.2175 26.6667 85.0581 24.4307C83.8987 22.167 83.319 19.5031 83.319 16.439C83.319 13.3748 83.8987 10.7247 85.0581 8.48867C86.2175 6.25264 87.8738 4.52732 90.027 3.31269C92.2078 2.07046 94.8165 1.44934 97.8531 1.44934C99.8959 1.44934 101.732 1.73919 103.36 2.3189C105.017 2.89861 106.438 3.75437 107.625 4.88619L105.886 9.10978C104.589 8.06079 103.333 7.31544 102.118 6.87376C100.931 6.40447 99.5646 6.16983 98.0187 6.16983C95.065 6.16983 92.8014 7.067 91.2279 8.86134C89.682 10.6281 88.909 13.1539 88.909 16.439C88.909 19.724 89.682 22.2637 91.2279 24.058C92.8014 25.8523 95.065 26.7495 98.0187 26.7495C99.5646 26.7495 100.931 26.5287 102.118 26.087C103.333 25.6177 104.589 24.8447 105.886 23.7681L107.625 27.9917C106.438 29.096 105.017 29.9517 103.36 30.559C101.732 31.1663 99.8959 31.47 97.8531 31.47Z" fill="black"/>
<path d="M112.204 31.0559V0.579773H117.38V31.0559H112.204Z" fill="black"/>
<path d="M132.442 31.47C130.288 31.47 128.425 31.0283 126.852 30.1449C125.278 29.2616 124.05 28.0055 123.166 26.3768C122.31 24.7481 121.883 22.8158 121.883 20.5797C121.883 18.3437 122.31 16.4252 123.166 14.8241C124.05 13.1954 125.278 11.9393 126.852 11.0559C128.425 10.1726 130.288 9.7309 132.442 9.7309C134.595 9.7309 136.458 10.1726 138.032 11.0559C139.633 11.9393 140.861 13.1954 141.717 14.8241C142.6 16.4252 143.042 18.3437 143.042 20.5797C143.042 22.8158 142.6 24.7481 141.717 26.3768C140.861 28.0055 139.633 29.2616 138.032 30.1449C136.458 31.0283 134.595 31.47 132.442 31.47ZM132.442 27.4948C134.07 27.4948 135.368 26.9289 136.334 25.7971C137.3 24.6377 137.783 22.8986 137.783 20.5797C137.783 18.2609 137.3 16.5356 136.334 15.4038C135.368 14.272 134.07 13.706 132.442 13.706C130.813 13.706 129.515 14.272 128.549 15.4038C127.583 16.5356 127.1 18.2609 127.1 20.5797C127.1 22.8986 127.583 24.6377 128.549 25.7971C129.515 26.9289 130.813 27.4948 132.442 27.4948Z" fill="black"/>
<path d="M157.112 31.47C154.959 31.47 153.068 31.0283 151.439 30.1449C149.838 29.2616 148.596 28.0055 147.713 26.3768C146.829 24.7205 146.388 22.7606 146.388 20.4969C146.388 18.2333 146.829 16.3009 147.713 14.6998C148.624 13.0987 149.88 11.8703 151.481 11.0145C153.082 10.1588 154.959 9.7309 157.112 9.7309C158.492 9.7309 159.831 9.95174 161.129 10.3934C162.454 10.8075 163.53 11.4148 164.359 12.2154L162.785 15.8178C162.04 15.1277 161.198 14.617 160.259 14.2858C159.348 13.9269 158.451 13.7475 157.568 13.7475C155.718 13.7475 154.269 14.3272 153.22 15.4866C152.198 16.646 151.688 18.3299 151.688 20.5383C151.688 22.7468 152.198 24.4445 153.22 25.6315C154.269 26.8185 155.718 27.412 157.568 27.412C158.423 27.412 159.307 27.2464 160.218 26.9151C161.156 26.5839 162.012 26.0732 162.785 25.3831L164.359 28.9441C163.503 29.7447 162.412 30.3658 161.087 30.8075C159.79 31.2492 158.465 31.47 157.112 31.47Z" fill="black"/>
<path d="M168.371 31.0559V0.579773H173.547V19.0477H173.63L182.119 10.145H188.371L177.812 21.2009L177.854 19.1305L189.117 31.0559H182.698L173.63 21.6978H173.547V31.0559H168.371Z" fill="black"/>
<path d="M52.4553 5.69357C52.4553 7.12288 51.2966 8.28156 49.8673 8.28156C48.438 8.28156 47.2793 7.12288 47.2793 5.69357C47.2793 4.26427 49.8673 1.0352 49.8673 0C49.8673 1.0352 52.4553 4.26427 52.4553 5.69357Z" fill="#089FF4"/>
</svg>
